<svg xmlns="http://www.w3.org/2000/svg" viewBox="0 0 64 64">
  <path d="M32 32 L62 32 A30 30 0 0 1 47 57.98 Z" fill="#3B82F6"/>
  <path d="M32 32 L47 57.98 A30 30 0 0 1 17 57.98 Z" fill="#EF4444"/>
  <path d="M32 32 L17 57.98 A30 30 0 0 1 2 32 Z" fill="#F59E0B"/>
  <path d="M32 32 L2 32 A30 30 0 0 1 17 6.02 Z" fill="#10B981"/>
  <path d="M32 32 L17 6.02 A30 30 0 0 1 47 6.02 Z" fill="#8B5CF6"/>
  <path d="M32 32 L47 6.02 A30 30 0 0 1 62 32 Z" fill="#EC4899"/>
  <circle cx="32" cy="32" r="8.5" fill="#ffffff"/>
</svg>
